<!-- icon666.com - MILLIONS vector ICONS FREE --><svg id="Capa_1" enable-background="new 0 0 512 512" viewBox="0 0 512 512" xmlns="http://www.w3.org/2000/svg"><g><g><path d="m504.5 256c0 62.554-23.114 119.71-61.266 163.394 0 0-20.016 18.702-30.681 27.457-42.883 35.205-96.74 51.638-156.553 51.638-137.243 0-242.83-105.246-242.83-242.489 0-46.583 9.444-89.356 31.745-126.617 11.041-18.449 22.111-36.162 37.397-51.104 44.8-43.79 106.092-70.779 173.688-70.779 137.243 0 248.5 111.257 248.5 248.5z" fill="#f9f8f9"></path><path d="m444.78 417.6c-45.57 53.19-113.24 86.9-188.78 86.9-137.24 0-248.5-111.26-248.5-248.5 0-70.1 29.03-133.42 75.72-178.6-37.23 43.45-59.72 99.9-59.72 161.6 0 137.24 111.26 248.5 248.5 248.5 67.14 0 128.06-26.63 172.78-69.9z" fill="#e8e8e8"></path><path d="m256.313 444.674c-103.863 0-188.362-84.499-188.362-188.362 0-69.329 37.649-130.03 93.576-162.731 21.445-12.539 56.567-9.411 82.295-12.624 7.694-.961 4.541-13.006 12.49-13.006 103.863 0 188.362 84.499 188.362 188.362s-84.498 188.361-188.361 188.361z" fill="#e8e8e8"></path><path d="m335.424 102.424c-47.189-26.578-95.566-30.613-140.912-21.534-63.744 12.761-120.213 54.785-147.727 125.816-.909 2.347.039 4.989 2.233 6.222 1.753.986 3.284 2.863 3.284 2.863 112.354 59.554 239.106 12.504 285.353-107.151.906-2.344-.041-4.983-2.231-6.216z" fill="#ffe07d"></path><path d="m48.135 213.533c-.37-.203-.736-.414-1.106-.617-2.19-1.235-3.145-3.877-2.232-6.228 47.09-121.554 177.099-168.204 290.626-104.264 1.875 1.056 2.847 3.151 2.509 5.204-113.325-54.862-238.261-9.406-289.797 105.905z" fill="#ffd064"></path><path d="m100.609 193.386c-1.784-.6-2.554-2.703-1.616-4.336 4.324-7.526 9.898-14.24 21.722-18.477 12.066-4.33 20.585-2.417 27.994.295l.061.022c1.928.703 2.746 2.983 1.704 4.751l-.037.062c-3.988 6.801-9.345 13.693-21.418 18.026-10.426 3.842-19.355 2.703-28.41-.343zm67.856-24.201c-1.963-.71-2.769-2.957-1.705-4.752l.03-.051c3.999-6.806 9.364-13.705 21.425-18.039 12.062-4.327 20.581-2.423 27.987.28.04.014.079.029.119.043 1.958.695 2.768 2.956 1.698 4.738-.02.034-.041.068-.061.103-4.001 6.795-9.365 13.676-21.428 18.004-12.074 4.322-20.596 2.409-28.006-.304-.019-.007-.039-.015-.059-.022zm67.429-24.195c-1.955-.695-2.766-2.954-1.698-4.732.025-.042.05-.085.075-.127 4.007-6.825 9.38-13.735 21.457-18.06 11.821-4.239 20.426-2.687 29.71.945.676.264 1.366.475 2.064.636-4.68 8.839-10.136 16.891-23.446 21.673-12.07 4.338-20.608 2.424-28.036-.289-.041-.016-.083-.031-.126-.046z" fill="#ffc250"></path><path d="m329.6 178.381c-53.892-6.941-100.396 7.528-139.144 33.05-54.469 35.876-91.151 96.223-89.982 172.638.039 2.525 1.915 4.625 4.42 4.945 2.002.256 4.132 1.426 4.132 1.426 126.908 13.061 227.054-78.432 224.99-207.117-.04-2.523-1.914-4.62-4.416-4.942z" fill="#ffe07d"></path><path d="m104.301 389.907c-.421-.049-.841-.108-1.261-.157-2.502-.324-4.384-2.421-4.421-4.95-1.994-130.769 101.33-223.116 230.981-206.419 2.142.276 3.834 1.857 4.293 3.894-126.044-8.332-225.101 80.995-229.592 207.632z" fill="#ffd064"></path><path d="m145.028 352.018c-1.856.111-3.355-1.49-3.104-3.332 1.18-8.658 3.821-17.029 13.252-25.452 9.589-8.571 18.231-10.001 26.142-10.27l.066-.002c2.057-.073 3.676 1.739 3.373 3.775l-.011.073c-1.147 7.826-3.532 16.253-13.127 24.83-8.387 7.607-17.008 9.805-26.591 10.378zm54.028-48.06c-2.093.079-3.688-1.707-3.375-3.777.003-.02.006-.039.009-.059 1.155-7.835 3.545-16.271 13.128-24.844 9.587-8.567 18.225-10.005 26.131-10.281.042-.001.084-.003.127-.005 2.083-.091 3.687 1.706 3.364 3.766-.006.039-.012.079-.018.119-1.161 7.825-3.557 16.245-13.144 24.813-9.6 8.567-18.245 9.998-26.157 10.266-.022 0-.043.001-.065.002zm53.589-47.896c-2.08.09-3.685-1.705-3.361-3.761.008-.049.015-.098.022-.147 1.156-7.856 3.549-16.305 13.151-24.875 9.396-8.394 17.982-10.192 27.984-10.311.728-.009 1.449-.072 2.159-.186-1.023 9.982-3.063 19.524-13.639 28.984-9.59 8.58-18.25 10.016-26.179 10.291-.047.001-.092.003-.137.005z" fill="#ffc250"></path><path d="m426.143 205.708c-53.882 8.402-94.648 35.369-124.844 70.816-42.447 49.828-60.9 118.26-38.376 191.576.744 2.422 3.141 3.921 5.645 3.528 2.001-.314 4.382.217 4.382.217 125.964-22.951 196.858-139.17 158.834-262.612-.746-2.419-3.14-3.915-5.641-3.525z" fill="#ffe07d"></path><path d="m268.247 472.656c-.419.07-.841.131-1.259.202-2.502.389-4.903-1.105-5.647-3.533-38.541-125.469 35.177-243.402 164.803-263.617 2.141-.334 4.215.716 5.228 2.551-123.809 27.266-194.26 141.093-163.125 264.397z" fill="#ffd064"></path><path d="m295.852 422.407c-1.786.638-3.706-.544-3.982-2.42-1.272-8.645-1.048-17.427 5.658-28.147 6.841-10.946 14.77-14.743 22.319-17.218l.062-.02c1.963-.646 4.031.647 4.309 2.694l.01.072c1.086 7.864 1.147 16.653-5.698 27.606-5.943 9.665-13.622 14.198-22.678 17.433zm38.568-61.432c-1.995.663-4.033-.612-4.311-2.695-.003-.02-.005-.039-.008-.059-1.081-7.874-1.14-16.674 5.695-27.619 6.84-10.941 14.763-14.746 22.305-17.225.04-.013.081-.027.121-.04 1.982-.671 4.032.612 4.297 2.687.005.04.01.08.016.119 1.072 7.867 1.12 16.652-5.719 27.594-6.853 10.945-14.784 14.744-22.334 17.218-.022.006-.042.013-.062.02zm38.233-61.166c-1.979.669-4.028-.611-4.293-2.683-.006-.049-.013-.098-.02-.148-1.086-7.894-1.146-16.708 5.708-27.656 6.705-10.721 14.476-14.858 24.082-17.774.699-.213 1.376-.475 2.029-.784 1.809 9.907 2.515 19.674-5.028 31.753-6.84 10.954-14.784 14.763-22.348 17.248-.044.015-.087.029-.13.044z" fill="#ffc250"></path><path d="m247.028 50.708c-14.488 134.923 80.396 237.994 216.077 233.052 2.619-.095 4.758-2.089 5.036-4.696.222-2.083 2.023-4.73 2.023-4.73 10.625-130.188-83.732-231.127-214.414-229.113 0 0-3.765.499-5.598.567-2.616.097-2.845 2.316-3.124 4.92z" fill="#ffe07d"></path><path d="m469.715 279.249c-.042.438-.094.875-.135 1.312-.281 2.604-2.416 4.603-5.041 4.697-135.676 4.937-233.785-100.276-219.298-235.202.24-2.229 1.843-4.02 3.947-4.541-5.884 131.001 88.996 231.849 220.527 233.734z" fill="#ffd064"></path><path d="m428.45 236.712c.159 1.955-1.536 3.557-3.484 3.331-8.978-1.042-17.693-3.616-26.61-13.185-9.106-9.764-10.779-18.702-11.232-26.907l-.004-.068c-.121-2.134 1.725-3.854 3.845-3.584l.075.01c8.148 1.019 16.946 3.31 26.058 13.08 8.068 8.524 10.543 17.409 11.352 27.323zm-51.061-54.973c.128 2.17-1.69 3.865-3.846 3.586-.02-.003-.041-.005-.061-.008-8.157-1.027-16.965-3.323-26.072-13.081-9.102-9.762-10.783-18.696-11.243-26.895-.002-.044-.005-.088-.008-.131-.14-2.16 1.69-3.864 3.835-3.574.041.006.082.011.124.016 8.147 1.033 16.938 3.336 26.041 13.098 9.102 9.775 10.776 18.716 11.228 26.922-.001.023.001.045.002.067zm-50.884-54.567c.139 2.156-1.688 3.861-3.829 3.571-.051-.007-.102-.014-.153-.02-8.178-1.027-17.001-3.326-26.106-13.103-8.061-8.528-10.529-17.434-11.329-27.364-.158-1.956 1.541-3.557 3.49-3.327 9.053 1.065 17.819 3.68 26.665 13.158 9.115 9.765 10.795 18.722 11.254 26.945.002.046.005.093.008.14z" fill="#ffc250"></path></g><g><path d="m478.306 128.964c-2.059-3.596-6.642-4.841-10.235-2.782-3.595 2.059-4.84 6.642-2.782 10.235 20.745 36.229 31.711 77.58 31.711 119.583 0 132.888-108.112 241-241 241s-241-108.112-241-241 108.112-241 241-241c74.975 0 144.388 34.002 190.44 93.287 2.542 3.272 7.256 3.862 10.523 1.322 3.271-2.541 3.863-7.253 1.322-10.523-23.426-30.157-53.805-55.104-87.854-72.146-35.712-17.877-74.213-26.94-114.431-26.94-68.38 0-132.667 26.629-181.02 74.98-48.351 48.352-74.98 112.64-74.98 181.02s26.629 132.668 74.98 181.02c48.353 48.351 112.64 74.98 181.02 74.98s132.668-26.629 181.02-74.98 74.98-112.64 74.98-181.02c0-44.614-11.651-88.543-33.694-127.036z"></path><path d="m92.456 390.392c.248 3.111 2.599 6.301 6.407 6.833 8.036 1.149 16.02 1.885 23.938 2.234 34.721 32.269 79.351 50.688 126.515 52.28 1.701 7.522 3.774 15.056 6.239 22.581.931 2.646 4.001 5.799 8.152 5.095 53.56-7.393 99.591-30.905 133.118-67.997 30.814-34.091 48.846-78.281 51.23-125.134 4.374.074 10.246-.004 16.635-.338 3.183-.142 6.546-2.634 7.037-6.562 4.186-33.611 1.503-66.025-7.974-96.341-9.17-29.335-24.248-55.385-44.816-77.425-20.545-22.015-45.453-38.835-74.033-49.993-29.539-11.533-61.634-16.445-95.397-14.587-3.159.139-6.545 2.632-7.031 6.556-.788 6.29-1.335 12.537-1.641 18.737-25.435-1.225-50.36 2.233-74.193 10.342-3.921 1.335-6.019 5.595-4.684 9.517 1.062 3.121 3.977 5.086 7.1 5.086.801 0 1.616-.129 2.417-.401 22.18-7.547 45.398-10.738 69.109-9.54.15 10.97 1.065 21.772 2.756 32.37-10.878 5.926-16.604 14.049-20.97 22.042-10.351-4.05-22.33-6.948-38.547-1.052-16.171 5.88-23.506 15.777-28.848 25.526-10.373-4.049-22.371-6.943-38.573-1.04-19.637 7.155-26.235 20.23-32.057 31.768-2.018 3.998-13.628 6.404-22.958 8.338-1.633.338-3.28.68-4.927 1.035 18.148-41.916 47.112-74.856 84.423-95.795 3.612-2.026 4.897-6.599 2.87-10.211-2.028-3.612-6.6-4.896-10.211-2.869-44.468 24.955-77.879 65.573-96.621 117.464-.97 3.169-.399 6.729 3.288 9.034 7.125 4.137 14.396 7.875 21.772 11.217-1.218 8.862-1.844 17.864-1.844 26.841 0 6.304.305 12.669.907 18.918.373 3.879 3.638 6.782 7.457 6.782.24 0 .483-.012.728-.035 4.123-.397 7.144-4.062 6.747-8.185-.556-5.773-.837-11.654-.837-17.48 0-6.979.412-13.972 1.21-20.889 19.263 7.241 39.086 11.782 58.864 13.454-13.692 17.905-24.309 38.045-31.596 59.996-3.367 10.143-5.978 20.581-7.852 31.26-5.6-10.658-10.116-21.838-13.482-33.422-1.156-3.978-5.318-6.267-9.295-5.109-3.978 1.156-6.265 5.317-5.109 9.295 5.53 19.029 13.919 37.049 24.934 53.608-.577 8.512-.709 17.147-.382 25.886.006.126-.001.002.025.31zm62.27-142.475c27.951-31.993 67.981-54.444 114.642-61.181 3.786 6.417 7.926 12.606 12.414 18.558-8.743 1.103-18.026 4.282-27.648 12.951-12.821 11.552-15.885 23.49-17.168 34.531-11.113.123-23.307 1.922-36.134 13.463-12.791 11.509-15.885 23.434-17.185 34.474-11.136.133-23.343 1.943-36.153 13.485-15.527 13.99-16.746 28.586-17.822 41.464-.373 4.463-10.237 11.043-18.164 16.331-1.385.924-2.781 1.856-4.172 2.8 1.247-49.78 18.43-93.763 47.39-126.876zm121.86-157.13c.206 11.463 1.907 24.079 14.119 37.184 11.763 12.623 23.775 15.489 34.862 16.589.331 11.117 2.368 23.271 14.113 35.858 11.752 12.592 23.743 15.46 34.814 16.556.321 11.121 2.345 23.284 14.088 35.884 14.249 15.29 28.851 16.265 41.733 17.124 4.428.295 10.873 9.688 16.053 17.236.928 1.352 1.865 2.716 2.814 4.075-56.598-.456-106.999-21.581-143.113-60.339-35.132-37.702-52.656-87.701-50.309-142.378 6.537 9.436 12.807 18.418 20.826 22.211zm15.09 2.529c8.302.998 15.94 3.373 23.696 11.685 7.757 8.312 9.599 16.097 10.021 24.449-8.311-1.002-15.954-3.38-23.713-11.706-7.75-8.317-9.587-16.091-10.004-24.428zm48.954 52.475c8.274 1.009 15.889 3.401 23.618 11.695 7.738 8.304 9.583 16.06 10.004 24.371-8.266-1.004-15.876-3.392-23.604-11.674-7.74-8.293-9.591-16.062-10.018-24.392zm48.928 52.48c8.261 1 15.869 3.38 23.614 11.68 7.814 8.374 9.628 15.909 10.032 24.379-8.283-1.005-15.906-3.389-23.647-11.698-7.722-8.286-9.574-16.045-9.999-24.361zm-35.432 144.928c-6.008 9.623-13.033 13.422-20.969 15.99-1.167-8.253-.827-16.228 5.184-25.84 6.019-9.625 13.032-13.414 20.951-15.971 1.169 8.245.832 16.214-5.166 25.821zm-37.98 60.873c-6.026 9.637-13.06 13.424-21.007 15.985-1.185-8.277-.868-16.27 5.153-25.914 6.022-9.644 13.066-13.438 21.024-16.007 1.184 8.287.865 16.286-5.17 25.936zm-50.471 51.438c-13.889-53.495-7.171-106.603 19.411-150.938 2.13-3.552.977-8.159-2.576-10.289-3.551-2.129-8.159-.978-10.289 2.576-9.425 15.719-16.526 32.447-21.306 49.853-36.446 27.379-82.239 40.439-130.816 37.581 9.539-6.364 18.619-12.473 22.547-20.417 11.465-.005 24.109-1.489 37.424-13.469 12.828-11.542 15.902-23.502 17.196-34.569 11.12-.138 23.309-1.961 36.098-13.484 12.795-11.53 15.872-23.468 17.161-34.519 11.125-.127 23.321-1.941 36.124-13.461 9.512-8.558 13.657-17.343 15.693-25.822 5.404 5.231 11.077 10.132 17.011 14.694-9.251 7.346-17.836 15.455-25.587 24.213-2.745 3.102-2.456 7.842.646 10.587 1.427 1.263 3.201 1.884 4.968 1.884 2.073 0 4.137-.854 5.619-2.529 8.132-9.188 17.25-17.615 27.15-25.109 9.274 6.027 19.096 11.307 29.431 15.819-7.018 13.099-6.596 24.311-4.935 34.381-10.651 3.182-21.874 8.272-31.024 22.904-9.122 14.589-8.809 26.903-7.016 37.874-10.668 3.196-21.903 8.303-31.036 22.93-11.07 17.729-8.219 32.095-5.703 44.769.872 4.394-6.797 13.438-12.958 20.705-1.074 1.268-2.157 2.546-3.233 3.836zm-120.237-106.678c1.142-8.284 3.65-15.879 12.097-23.489 8.446-7.61 16.264-9.315 24.621-9.592-1.147 8.292-3.658 15.893-12.118 23.505-8.451 7.605-16.256 9.306-24.6 9.576zm53.322-48.031c1.153-8.255 3.677-15.828 12.106-23.411 8.439-7.593 16.224-9.3 24.542-9.576-1.148 8.247-3.669 15.814-12.083 23.395-8.429 7.594-16.228 9.311-24.565 9.592zm53.326-48.008c1.144-8.241 3.657-15.805 12.09-23.403 8.422-7.588 16.219-9.304 24.547-9.59-1.15 8.258-3.669 15.833-12.106 23.424-8.42 7.577-16.208 9.288-24.531 9.569zm119.099 45.553c-1.125-7.906-.865-15.56 4.47-24.674 5.991 2.122 12.079 3.989 18.263 5.578-.54 1.036-1.131 2.079-1.79 3.133-6.005 9.603-13.02 13.4-20.943 15.963zm-225.339 101.001c36.428-1.994 70.767-12.625 100.426-31.248-3.58 22.19-3.551 45.227.142 68.51-36.687-1.928-71.578-14.907-100.568-37.262zm134.683 61.816c7.426-8.759 14.486-17.145 16.074-25.875 11.02-3.167 22.767-8.078 32.262-23.263 9.148-14.63 8.808-26.974 7.001-37.968 10.652-3.197 21.865-8.312 30.982-22.914 9.122-14.609 8.789-26.934 6.983-37.912 10.659-3.189 21.883-8.292 31.014-22.895 1.628-2.603 2.981-5.183 4.097-7.783 7.912 1.451 15.964 2.471 24.135 3.083-4.324 87.706-64.099 155.888-152.548 175.527zm127.443-345.312c35.175 37.692 52.753 87.71 50.462 142.439-6.257-9.116-12.281-17.765-20.147-21.45-.215-11.439-1.93-24.03-14.148-37.124-11.773-12.615-23.762-15.471-34.824-16.562-.317-11.111-2.329-23.27-14.092-35.895-11.73-12.587-23.708-15.472-34.769-16.58-.325-11.132-2.35-23.306-14.115-35.913-14.257-15.279-28.871-16.244-41.768-17.096-4.469-.295-11.22-10.043-16.645-17.875-.946-1.366-1.901-2.744-2.868-4.116 56.5.442 106.817 21.492 142.914 60.172zm-161.504 13.619c.824 3.458 2.321 9.281 4.019 14.68-5.056.076-9.578-1.064-14.108-2.724 2.602-4.527 5.596-8.594 10.089-11.956zm-57.52 19.32c10.667-3.877 18.526-2.544 26.34.315-4.154 7.216-9.325 13.289-19.966 17.166-10.656 3.883-18.53 2.551-26.365-.311 4.162-7.221 9.338-13.297 19.991-17.17zm-67.41 24.482c10.681-3.891 18.567-2.544 26.419.331-4.17 7.257-9.344 13.366-20.039 17.253-10.678 3.882-18.553 2.535-26.391-.338 4.161-7.251 9.331-13.354 20.011-17.246zm-28.26 30.14c6.471 2.612 13.548 4.883 21.892 4.883 5.375 0 11.275-.942 17.873-3.341 16.217-5.896 23.548-15.833 28.893-25.609 10.363 4.04 22.347 6.913 38.521 1.019 16.184-5.896 23.509-15.815 28.844-25.578 6.124 2.39 12.844 4.384 20.679 4.384 1.842 0 3.747-.113 5.718-.354 1.887 4.747 3.945 9.394 6.162 13.944-44.624 7.74-84.675 29.22-114.555 61.444-27.769-.749-55.94-7.685-82.569-20.296 11.229-2.326 21.922-4.604 28.542-10.496z"></path></g></g></svg>